    <svg class="w-full h-full" preserveAspectRatio="xMidYMax meet" xmlns="http://www.w3.org/2000/svg" viewBox="0 0 437 866">
      <image clip-path="url(#phone-frame)" x="50% y="50%" class="w-full" width="437" height="866" href="https://res.cloudinary.com/makingthings/image/upload/t_duotone-brown-green/v1607953587/headcounthands/iPhone-flat.jpg" />
      <defs>
    <linearGradient id="myGradient" gradientTransform="rotate(90)">
      <stop offset="5%"  stop-color="#fff" stop-opacity="0" />
      <stop offset="95%" stop-color="#fff" stop-opacity="0.5"/>
    </linearGradient>      
      </defs>
    
      <text clip-path="url(#count-mask)" text-anchor="middle" font-size="800" class="count font-headline text-brown-700" x="52%" y="82%" fill="currentColor">222</text>
        <text clip-path="url(#count-mask)" x="50%"  y="80%" text-anchor="middle" class="count font-headline text-red-500" font-size="800" fill="currentColor">222<tspan x="53%" y="83%" stroke="currentColor" fill="none">222</tspan></text>      
        <path  clip-path="url(#count-mask)" d="M0 0 H436 V500 L0 400 Z"
         fill="url(#myGradient)" />

<clipPath id="phone-frame">
<path d="M436.849 203.473C436.837 203.438 436.826 203.392 436.814 203.357C436.721 203.101 436.581 202.868 436.418 202.647C436.395 202.612 436.372 202.589 436.348 202.566C435.976 202.112 435.464 201.786 434.882 201.647C434.673 201.6 434.452 201.554 434.231 201.554H433.393V82.1898C433.393 53.3466 430.112 35.4985 412.183 17.9296C403.84 9.75015 388.133 0 360.581 0H75.8488C48.3319 0 32.6013 9.75015 24.259 17.9296C6.34109 35.4868 3.06001 53.3466 3.06001 82.1898V118.154H2.00122C1.83833 118.154 1.68708 118.212 1.53582 118.247V118.212C1.47765 118.224 1.44274 118.258 1.38457 118.27C1.27985 118.305 1.18677 118.351 1.08206 118.398C0.965707 118.456 0.860992 118.538 0.756277 118.619C0.674832 118.677 0.593386 118.747 0.523576 118.817C0.418861 118.933 0.349051 119.061 0.267606 119.189C0.232701 119.259 0.174525 119.329 0.151255 119.41C0.0581751 119.631 0 119.876 0 120.132V149.208C0 149.464 0.0581751 149.708 0.151255 149.929C0.174525 150.01 0.232701 150.069 0.267606 150.15C0.337416 150.278 0.418861 150.406 0.523576 150.522C0.593386 150.592 0.663197 150.662 0.756277 150.72C0.860992 150.802 0.954072 150.871 1.08206 150.941C1.17514 150.988 1.27985 151.034 1.38457 151.069C1.43111 151.081 1.47765 151.116 1.53582 151.127V151.092C1.68708 151.127 1.83833 151.186 2.00122 151.186H3.06001V179.819H2.00122C1.83833 179.819 1.68708 179.878 1.53582 179.912V179.878C1.47765 179.889 1.44274 179.924 1.38457 179.936C1.27985 179.971 1.18677 180.017 1.08206 180.064C0.965707 180.122 0.860992 180.203 0.756277 180.285C0.674832 180.355 0.593386 180.413 0.523576 180.483C0.418861 180.599 0.349051 180.727 0.267606 180.855C0.232701 180.925 0.174525 180.994 0.151255 181.076C0.0581751 181.297 0 181.541 0 181.797V240.356C0 240.612 0.0581751 240.845 0.151255 241.078C0.174525 241.159 0.232701 241.217 0.267606 241.299C0.337416 241.438 0.418861 241.566 0.523576 241.671C0.593386 241.753 0.663197 241.811 0.756277 241.869C0.860992 241.962 0.954072 242.02 1.08206 242.09C1.17514 242.148 1.27985 242.183 1.38457 242.218C1.43111 242.241 1.47765 242.265 1.52419 242.276V242.241C1.67544 242.276 1.8267 242.334 1.98959 242.334H3.04838V258.879H2.00122C1.83833 258.879 1.68708 258.938 1.53582 258.972V258.938C1.47765 258.949 1.44274 258.984 1.38457 258.996C1.27985 259.031 1.18677 259.077 1.08206 259.124C0.965707 259.182 0.860992 259.263 0.756277 259.345C0.674832 259.415 0.593386 259.473 0.523576 259.543C0.418861 259.659 0.349051 259.787 0.267606 259.915C0.232701 259.985 0.174525 260.054 0.151255 260.136C0.0581751 260.357 0 260.601 0 260.857V319.416C0 319.672 0.0581751 319.905 0.151255 320.138C0.174525 320.219 0.232701 320.277 0.267606 320.359C0.337416 320.498 0.418861 320.626 0.523576 320.731C0.593386 320.813 0.663197 320.871 0.756277 320.929C0.860992 321.022 0.954072 321.08 1.08206 321.15C1.17514 321.208 1.27985 321.243 1.38457 321.278C1.43111 321.301 1.47765 321.325 1.52419 321.336V321.301C1.67544 321.336 1.8267 321.394 1.98959 321.394H3.04838V784.003C3.04838 812.846 6.32946 830.694 24.2474 848.263C32.5897 856.443 48.3086 866.181 75.8488 866.181H360.581C388.121 866.181 403.84 856.431 412.183 848.263C430.112 830.694 433.393 812.835 433.393 784.003V300.044H434.231C434.452 300.044 434.673 300.009 434.882 299.963C435.464 299.823 435.976 299.486 436.348 299.043C436.372 299.02 436.395 298.985 436.418 298.962C436.581 298.753 436.721 298.508 436.814 298.252C436.826 298.206 436.837 298.171 436.849 298.136C436.942 297.868 437 297.589 437 297.287V204.323C437 204.032 436.942 203.741 436.849 203.473Z" fill="#F2390B"/>
</clipPath>  
<clipPath id="count-mask">
<path fill-rule="evenodd" clip-rule="evenodd" d="M393.106 37.0311C388.44 32.4525 379.074 27.0002 360.876 27.0002H328.401C326.749 27.2099 324.352 28.2118 324.119 32.1729C323.793 37.6252 323.119 44.8134 317.72 50.3473C313.554 54.6113 308.179 56.6385 302.582 56.6385H135.299C129.702 56.6385 124.315 54.6113 120.149 50.3473C114.75 44.8134 114.087 37.6252 113.761 32.1729C113.529 28.2002 111.12 27.2099 109.479 27.0002H76.1322C57.9459 27.0002 48.5677 32.4525 43.9135 37.0311C32.9645 47.7843 31.0098 58.0481 31.0098 81.5933V784.407C31.0098 807.941 32.9529 818.216 43.9135 828.969C48.5793 833.536 57.9459 839 76.1438 839H360.887C379.085 839 388.452 833.548 393.106 828.969C404.067 818.216 406.01 807.941 406.01 784.407V81.5933C406.01 58.0598 404.067 47.7843 393.106 37.0311ZM194.898 31.4146C192.649 31.4146 190.826 33.2378 190.826 35.4868C190.826 37.7359 192.649 39.5591 194.898 39.5591H241.439C243.688 39.5591 245.511 37.7359 245.511 35.4868C245.511 33.2378 243.688 31.4146 241.439 31.4146H194.898ZM272.271 36.0686C272.271 39.9241 269.146 43.0496 265.29 43.0496C261.435 43.0496 258.309 39.9241 258.309 36.0686C258.309 32.2131 261.435 29.0876 265.29 29.0876C269.146 29.0876 272.271 32.2131 272.271 36.0686Z" fill="black"/>    
</clipPath>

</svg>
